<?xml version="1.0" encoding="UTF-8" standalone="no"?>
<!-- Created with Inkscape (http://www.inkscape.org/) -->

<svg
   width="456.97812mm"
   height="456.97812mm"
   viewBox="0 0 456.97812 456.97812"
   version="1.1"
   id="svg5"
   xml:space="preserve"
   inkscape:export-filename="rusticLogo.svg"
   inkscape:export-xdpi="96"
   inkscape:export-ydpi="96"
   xmlns:inkscape="http://www.inkscape.org/namespaces/inkscape"
   xmlns:sodipodi="http://sodipodi.sourceforge.net/DTD/sodipodi-0.dtd"
   xmlns="http://www.w3.org/2000/svg"
   xmlns:svg="http://www.w3.org/2000/svg"><sodipodi:namedview
     id="namedview7"
     pagecolor="#ffffff"
     bordercolor="#000000"
     borderopacity="0.25"
     inkscape:showpageshadow="2"
     inkscape:pageopacity="0.0"
     inkscape:pagecheckerboard="0"
     inkscape:deskcolor="#d1d1d1"
     inkscape:document-units="mm"
     showgrid="false" /><defs
     id="defs2" /><g
     inkscape:label="Layer 1"
     inkscape:groupmode="layer"
     id="layer1"
     transform="translate(-9.3626385,154.23906)"><path
       style="fill:#f2b337;fill-opacity:1;stroke:#bd6713;stroke-width:0.913956;stroke-opacity:1"
       d="m 206.81304,245.55742 c 0.20945,-0.62834 0.92919,-1.14245 1.59942,-1.14245 0.67023,0 1.38997,0.51411 1.59942,1.14245 0.22654,0.67961 -0.42143,1.14245 -1.59942,1.14245 -1.17799,0 -1.82596,-0.46284 -1.59942,-1.14245 z m 69.23218,-1.19639 c 0,-0.78368 0.41128,-1.17068 0.91396,-0.86001 0.50267,0.31067 0.91395,0.95187 0.91395,1.42487 0,0.47301 -0.41128,0.86002 -0.91395,0.86002 -0.50268,0 -0.91396,-0.6412 -0.91396,-1.42488 z m 30.16056,-2.68792 c 0,-0.8701 0.87561,-1.37094 2.39679,-1.37094 2.02686,0 2.2212,0.2116 1.25903,1.37094 -0.62578,0.75401 -1.70433,1.37093 -2.39679,1.37093 -0.69247,0 -1.25903,-0.61692 -1.25903,-1.37093 z m -77.22931,-3.19885 c -0.84385,-1.3654 0.33028,-2.74187 2.33884,-2.74187 2.1276,0 2.37284,2.3165 0.32828,3.10106 -1.8959,0.72753 -2.00452,0.7129 -2.66712,-0.35919 z m 61.04373,-3.75578 c -1.44816,-1.44815 -0.42649,-3.55587 1.72363,-3.55587 1.32131,0 1.71678,0.52272 1.50164,1.98481 -0.34373,2.33598 -1.76704,3.0293 -3.22527,1.57106 z m -110.39736,-1.72796 c -0.36481,-0.59028 -0.25202,-1.4845 0.25066,-1.98718 0.60931,-0.6093 1.13506,-0.55621 1.57725,0.15927 0.36481,0.59028 0.25201,1.4845 -0.25066,1.98718 -0.60931,0.6093 -1.13506,0.55621 -1.57725,-0.15927 z m 17.31595,-1.90754 c -0.86372,-1.39753 1.01074,-3.01491 2.72965,-2.35531 0.7878,0.30231 1.43237,1.17948 1.43237,1.94928 0,1.5973 -3.23096,1.9125 -4.16202,0.40603 z m 34.43257,-0.24482 c -0.79645,-0.95966 -0.74521,-1.51098 0.21445,-2.30742 0.95966,-0.79645 1.51098,-0.74522 2.30743,0.21445 0.79645,0.95966 0.74521,1.51098 -0.21445,2.30742 -0.95966,0.79645 -1.51098,0.74522 -2.30743,-0.21445 z m 37.06869,-1.23897 c -0.27491,-0.44482 -0.16709,-1.34712 0.23958,-2.00513 0.56177,-0.90897 0.90142,-0.93425 1.41379,-0.10522 0.3709,0.60014 0.2631,1.50245 -0.23958,2.00512 -0.51132,0.51132 -1.13415,0.55768 -1.41379,0.10523 z m -22.76786,-2.60954 c -0.57082,-0.57082 -2.54426,-0.79033 -15.32478,-1.70457 -4.77542,-0.34161 -9.50515,-0.99124 -10.5105,-1.44363 -7.62884,-3.43278 -8.8943,-3.70614 -10.02135,-2.16482 -1.27919,1.7494 -5.05893,0.32308 -5.05893,-1.90904 0,-1.63216 -3.11272,-2.7384 -7.75714,-2.75683 -2.85763,-0.0113 -3.64681,-0.36125 -3.65582,-1.62089 -0.0117,-1.6322 -3.22636,-3.5856 -20.11853,-12.22495 -7.82109,-4.00003 -26.69809,-16.32484 -29.77399,-19.43946 -0.79275,-0.80273 -3.05479,-2.91163 -5.02676,-4.68643 -3.98736,-3.58869 -15.08736,-16.12481 -17.39208,-19.64226 -0.81611,-1.24554 -2.05346,-2.26462 -2.74965,-2.26462 -0.6962,0 -1.26583,-0.52415 -1.26583,-1.16478 0,-0.64063 -3.50205,-7.94085 -7.78233,-16.22272 -4.28029,-8.28187 -7.92145,-15.46922 -8.09146,-15.9719 -2.384426,-7.04989 -6.75219,-28.878424 -7.452258,-37.243724 -0.326023,-3.89573 -0.724981,-7.08316 -0.886573,-7.08316 -0.161591,0 -3.108283,1.2696 -6.548204,2.82132 -31.25216,14.09764 -68.319227,17.30957 -69.612149,6.03201 -0.294769,-2.57112 -0.294769,-2.57112 2.741868,-1.00008 13.623466,7.04832 34.450338,4.99556 62.900771,-6.19966 11.102191,-4.368704 10.964832,-4.21347 10.983868,-12.413639 0.01613,-6.950847 1.596354,-19.279505 3.577866,-27.914052 0.555451,-2.420412 0.756245,-4.811184 0.446206,-5.312836 -0.310038,-0.501653 0.04066,-1.605922 0.779339,-2.453927 0.738674,-0.848014 2.058686,-3.803877 2.933356,-6.568594 2.163,-6.836923 10.43929,-23.8534906 15.03345,-30.9096986 2.06831,-3.176756 3.85385,-6.2007184 3.96783,-6.7199274 0.23256,-1.059221 1.53631,-2.518863 12.42969,-13.91598 8.13691,-8.513173 21.50458,-19.565162 28.67712,-23.709378 2.88449,-1.666617 4.3413,-3.118702 4.3413,-4.327189 0,-2.080375 3.54858,-3.830656 5.15295,-2.541621 1.65381,1.328755 5.35057,-0.878788 6.47931,-3.869152 0.91948,-2.435977 1.22422,-2.59378 3.23752,-1.676461 1.83675,0.836883 2.99968,0.621052 6.70023,-1.243464 9.87157,-4.973787 25.75567,-9.66528 39.08412,-11.543798 4.64422,-0.654557 6.61612,-1.373055 7.59196,-2.766262 1.63871,-2.339591 2.20079,-2.345084 4.66896,-0.04561 2.35845,2.197234 10.44046,2.452328 9.61588,0.303507 -0.89357,-2.328605 0.39072,-3.761807 2.93508,-3.275427 1.95807,0.374311 2.36138,0.878074 2.04172,2.550258 -0.36358,1.901933 -0.0185,2.110608 3.95349,2.390937 2.92179,0.206206 4.09371,-0.0037 3.56633,-0.637476 -1.16613,-1.402338 0.44345,-3.399826 2.4183,-3.001103 1.0878,0.219615 1.69224,1.08673 1.64711,2.362888 -0.0573,1.621577 0.56844,2.121968 3.19885,2.557861 17.9062,2.967269 53.08075,16.862109 53.08075,20.96825 0,1.678928 -2.38373,1.798775 -3.38192,0.170032 -1.77218,-2.891639 -7.09405,-5.097116 -11.02666,-4.569644 -3.18211,0.426781 -3.87055,0.25387 -3.87055,-0.972157 0,-0.820203 0.43556,-1.491275 0.9679,-1.491275 2.46193,0 -0.66607,-1.865714 -7.00275,-4.176835 -5.6393,-2.056767 -7.28283,-2.334381 -8.67453,-1.465245 -2.32733,1.453437 -2.65579,1.364344 -2.65579,-0.72039 0,-1.90155 -1.9378,-2.633757 -11.88143,-4.489399 -22.69944,-4.236095 -44.25147,-3.371538 -66.26183,2.658087 -6.89618,1.889175 -11.21688,3.685638 -5.64661,2.347761 7.40208,-1.777855 22.07597,-3.492711 28.72401,-3.356805 6.26685,0.128109 7.54014,-0.08509 7.54014,-1.262238 0,-0.80706 0.78634,-1.416367 1.82791,-1.416367 1.01551,0 1.82791,0.609307 1.82791,1.370934 0,0.754014 0.30846,1.384388 0.68547,1.400839 0.37701,0.01645 3.5623,0.40034 7.07844,0.853105 5.26406,0.677836 6.66423,0.577712 7.92912,-0.566991 1.96588,-1.779107 4.64339,-1.278387 5.67526,1.061314 1.57332,3.567436 13.08383,6.195691 12.59664,2.876266 -0.33348,-2.27216 -0.14149,-2.618549 1.172,-2.114511 0.86396,0.331528 1.94847,0.602781 2.41003,0.602781 1.46474,0 0.90422,2.614655 -0.76022,3.546141 -1.43765,0.804565 -1.36832,0.983061 0.68547,1.764704 1.25669,0.478282 3.87742,1.5354 5.82384,2.34916 1.94642,0.813759 4.67857,1.479558 6.07143,1.479558 1.39285,0 2.75687,0.584795 3.03114,1.299545 0.27428,0.714741 2.4775,2.413009 4.89606,3.773926 2.41855,1.360909 6.48387,3.860716 9.03403,5.555127 2.55018,1.694411 5.35059,3.080745 6.22315,3.080745 0.87256,0 1.34986,0.382866 1.06066,0.850802 -0.28922,0.467946 -0.13356,1.093247 0.34588,1.389561 0.50134,0.309831 0.69424,-0.440015 0.45402,-1.764767 -0.22974,-1.266926 -0.0259,-2.303508 0.45299,-2.303508 1.43819,0 0.82874,5.349048 -0.77478,6.800218 -1.32238,1.196734 -2.00257,1.104562 -6.03058,-0.817186 -38.07106,-18.163574 -89.8731,-14.528697 -127.44357,8.942532 -5.91268,3.6938 -7.48652,4.267517 -11.70687,4.267517 -5.96551,0 -5.76349,-0.392462 3.47954,-6.75951 32.05808,-22.083167 76.67359,-29.794892 113.74727,-19.661055 7.31389,1.999206 8.10834,2.08914 7.33002,0.82979 -0.31067,-0.502676 -1.38034,-0.913956 -2.37704,-0.913956 -0.99671,0 -2.60201,-0.735826 -3.56735,-1.635178 -2.46543,-2.296899 -18.84503,-8.198607 -24.76421,-8.922744 -2.71463,-0.332104 -6.64986,-1.160688 -8.74496,-1.841302 -6.06148,-1.969128 -25.85919,-2.608056 -29.07743,-0.938423 -2.22732,1.155561 -2.77356,1.170358 -3.60528,0.0977 -1.21432,-1.56611 -9.82312,-0.818548 -9.44677,0.820321 0.13252,0.577054 -0.17034,1.037039 -0.67302,1.022178 -0.50267,-0.01481 -0.81113,-0.335467 -0.68547,-0.712474 0.56022,-1.680647 -4.3598,-0.530698 -5.30776,1.240567 -0.75381,1.408507 -1.30273,1.654087 -2.04286,0.913957 -1.98359,-1.983596 -18.08611,1.947476 -24.14871,5.895365 -1.11334,0.724986 -2.48142,1.318162 -3.0402,1.318162 -1.44287,0 -14.76665,8.980808 -16.4236,11.070213 -0.75955,0.957799 -2.81595,2.471191 -4.56978,3.363103 -1.75383,0.891912 -3.07576,2.152659 -2.93764,2.801669 0.13812,0.649 -0.10485,0.959992 -0.53995,0.691088 -1.0113,-0.625018 -14.09911,12.824735 -19.4648,20.003112 -11.62319,15.5498404 -22.79349,38.723749 -25.87141,53.672856 -3.8673,18.782989 -3.9164,19.518815 -1.34743,20.190619 2.08582,0.545449 1.9457,2.908848 -0.17246,2.908848 -0.71212,0 -1.59693,0.411281 -1.96624,0.913957 -0.97477,1.326781 -0.85266,10.510496 0.13975,10.510496 1.95965,0 3.58243,-1.150497 3.16332,-2.242684 -0.87524,-2.280832 2.52237,-4.639543 3.92329,-2.723663 2.02576,2.770385 4.72854,-7.713059 3.46809,-13.451863 -0.41814,-1.903771 -0.18366,-2.753312 0.87171,-3.158295 0.79405,-0.304704 1.44372,-1.132364 1.44372,-1.839236 0,-0.706872 1.62451,-5.689524 3.61,-11.072562 2.41054,-6.535372 3.28053,-9.990967 2.6184,-10.400182 -0.62479,-0.386147 -0.34088,-0.961107 0.76746,-1.554274 0.9675,-0.517793 2.34783,-2.104302 3.06741,-3.525577 8.15876,-16.1148486 27.77229,-41.427287 32.10024,-41.427287 4.12096,0 4.64765,3.817659 1.00985,7.319719 -4.36839,4.2053874 -10.99165,11.94854343 -13.92676,16.2815644 -1.25669,1.855222 -3.36138,4.80975 -4.67708,6.565624 -7.21787,9.6325596 -14.08051,25.7466036 -18.25348,42.8606726 -3.42019,14.026742 -3.78312,12.98507 4.23503,12.155005 10.679,-1.105521 27.41696,1.817631 32.34751,5.649228 1.06742,0.829497 1.19278,0.699021 0.669,-0.696307 -4.44431,-11.839371 -0.66199,-22.502745 7.98176,-22.502745 5.70224,0 12.0774,12.498224 7.30861,14.328183 -1.76157,0.675981 -3.07353,-1.148093 -3.09262,-4.299789 -0.0343,-5.654044 -4.55876,-8.005754 -8.11648,-4.21874 -4.14888,4.416292 -3.26767,12.421927 2.18011,19.80599 3.75985,5.096166 1.44212,5.297276 -7.6271,0.661795 -12.55927,-6.419336 -29.33807,-8.945027 -37.81477,-5.692211 -4.91254,1.885127 0.60122,56.425606 5.84291,57.796346 1.87798,0.49109 2.0781,1.25433 0.69228,2.64015 -1.54158,1.54158 5.47983,17.95711 11.14332,26.05224 0.9335,1.33429 1.69727,2.69285 1.69727,3.01901 0,6.81677 38.4719,43.29803 42.80615,40.59125 2.52538,-1.57714 4.57995,-0.47704 4.07197,2.18028 -0.38338,2.0055 0.43691,2.62725 9.03266,6.84662 45.77026,22.46712 126.29614,-8.96436 152.42126,-59.49423 0.81912,-1.58431 2.19561,-3.94235 3.05886,-5.24011 16.56209,-24.89833 23.69444,-80.925209 10.7979,-84.820866 -26.71611,-8.070124 -39.55451,-7.184253 -56.70913,3.913022 -7.04364,4.556501 -8.57653,5.058108 -8.11374,2.655033 0.16473,-0.855335 3.38952,-3.425837 7.16621,-5.712226 17.52812,-10.611462 31.20279,-11.120462 60.98656,-2.270066 2.53934,0.75458 2.5985,-0.198283 0.65002,-10.469817 -2.8427,-14.985574 -11.86663,-37.2988366 -19.90303,-49.2138106 -1.77586,-2.632934 -2.85226,-5.019886 -2.39199,-5.304346 4.26619,-2.6366454 21.55879,38.5013476 24.77419,58.9362026 1.16713,7.417422 1.16713,7.417422 6.67336,9.106624 9.6403,2.957462 11.44693,3.181034 11.44693,1.416541 0,-1.191836 -0.28459,-1.319269 -1.21742,-0.545084 -0.89901,0.746099 -1.6527,0.692112 -2.88151,-0.206417 -1.94638,-1.423231 -1.13988,-3.322012 1.411,-3.322012 0.97569,0 1.77087,-0.5141 1.76708,-1.142445 -0.0226,-3.733429 -2.28549,-13.971969 -4.76991,-21.581294 -1.58162,-4.844261 -2.79435,-9.263577 -2.69494,-9.820698 0.0994,-0.557129 -0.42472,-2.407891 -1.16474,-4.112803 -0.74002,-1.704921 -1.36158,-2.535397 -1.38126,-1.845506 -0.0516,1.810922 -2.50208,-0.355273 -4.27062,-3.775242 -0.75484,-1.459707 -1.86384,-2.465461 -2.46442,-2.234989 -0.73966,0.283829 -1.10343,-0.852986 -1.12748,-3.5234016 -0.0196,-2.168343 0.30074,-3.734626 0.71169,-3.480647 0.41095,0.25398 0.51056,0.844642 0.22135,1.312588 -0.2892,0.467936 -0.066,0.850801 0.49601,0.850801 0.56201,0 0.79753,0.362942 0.52337,0.80653 -0.55259,0.894105 2.82558,5.5911636 4.02122,5.5911636 0.87908,0 -6.53384,-15.4406136 -9.52921,-19.8486976 -1.11765,-1.644774 -2.37003,-2.684217 -2.78306,-2.309878 -0.41305,0.374329 -0.48009,0.206892 -0.149,-0.372099 0.33109,-0.578983 -1.04245,-3.2412374 -3.05232,-5.9161214 -4.39176,-5.844887 -4.93426,-8.765773 -0.91243,-4.912606 1.50803,1.444782 2.75331,3.064029 2.7673,3.598328 0.0622,2.377566 5.04208,7.3753614 7.05773,7.0831514 2.13773,-0.309904 3.0642,2.754116 1.18411,3.916074 -0.47977,0.296506 1.34223,4.74204403 4.04889,9.878971 2.70665,5.136919 6.42827,14.0695796 8.27026,19.8503526 4.44532,13.950884 4.73757,14.6233 6.35569,14.6233 1.71048,0 1.86837,3.529827 0.18675,4.175126 -1.02454,0.393156 -0.29003,11.498245 1.23513,18.67378 0.0535,0.251338 0.45059,-0.365583 0.88261,-1.370934 0.76839,-1.788147 0.78688,-1.785917 0.84971,0.10228 0.0563,1.690152 0.78839,2.00438 5.88725,2.526769 22.75622,2.331439 41.90192,-9.338238 54.9204,-33.475073 3.5852,-6.647103 4.68506,-7.997117 6.5153,-7.997117 3.13656,0 2.7937,1.465557 -2.34184,10.010298 -14.39598,23.952682 -29.34265,33.23516 -53.69556,33.347083 -13.82507,0.06352 -12.49434,-1.57015 -13.44568,16.506744 -0.26455,5.02676 -0.74466,11.23567 -1.06692,13.79757 -0.49541,3.9385 -0.33684,4.753604 1.02652,5.276764 2.23544,0.85783 2.67479,0.13609 2.3093,-3.793574 -0.75426,-8.11003 0.11956,-29.988354 1.18923,-29.775338 4.33531,0.863359 4.4968,1.037834 2.97351,3.212629 -0.80597,1.15068 -1.46539,3.645744 -1.46539,5.544607 0,1.898852 -0.37278,3.452452 -0.8284,3.452452 -0.45561,0 -0.61329,0.82256 -0.35038,1.82792 0.26291,1.00535 1.04696,1.82791 1.74235,1.82791 0.69538,0 1.26434,0.61692 1.26434,1.37093 0,0.75402 -0.57779,1.37094 -1.28396,1.37094 -0.9553,0 -1.16748,0.87734 -0.82891,3.42733 0.25029,1.88504 0.007,6.51194 -0.54035,10.28201 -3.29986,22.723594 -6.98844,35.532954 -14.43083,50.114184 -3.96947,7.77704 -4.66297,9.7891 -3.75223,10.88648 1.24494,1.50006 -1.05821,3.87578 -3.78674,3.90603 -1.97365,0.0218 -5.77459,5.59647 -4.60995,6.76112 1.50024,1.50023 1.01546,3.67895 -1.11457,5.00918 -1.52927,0.95505 -2.10369,0.99193 -2.38334,0.15301 -0.66772,-2.00317 -4.74133,2.7956 -4.74133,5.58537 0,2.17605 -0.37639,2.58256 -2.39122,2.58256 -1.63176,0 -4.12001,1.60056 -7.83441,5.03944 -6.59231,6.10331 -16.99597,13.88043 -23.16417,17.31609 -2.49666,1.39062 -4.84154,2.9959 -5.21086,3.5673 -0.36931,0.57138 -0.67777,0.70799 -0.68546,0.30357 -0.007,-0.40441 -2.79014,0.66108 -6.1832,2.36776 -3.39306,1.70668 -8.57839,3.86737 -11.52295,4.80155 -2.94456,0.93416 -5.53975,2.1832 -5.76709,2.77564 -0.22734,0.59244 -2.95509,1.36473 -6.06166,1.7162 -3.10658,0.35147 -6.18242,1.0823 -6.83522,1.62408 -0.6528,0.54177 -4.02606,1.1282 -7.49615,1.30318 -3.4701,0.17498 -7.45559,0.75398 -8.85666,1.28666 -1.79618,0.68291 -2.64285,0.68218 -2.87107,-0.003 -0.41022,-1.23066 -5.35817,-1.27683 -6.11204,-0.057 -0.58929,0.95349 -10.73432,1.29944 -11.63693,0.39682 z m 20.548,-7.39981 c -0.62834,-0.25354 -1.65654,-0.25354 -2.28489,0 -0.62834,0.25354 -0.11424,0.46099 1.14245,0.46099 1.25669,0 1.77079,-0.20745 1.14244,-0.46099 z m -19.42157,-1.6796 c 0,-0.75401 0.41128,-1.37093 0.91396,-1.37093 0.50267,0 0.91395,0.64463 0.91395,1.43253 0,1.00091 0.53321,1.26328 1.76979,0.87081 0.97338,-0.30894 4.98336,-0.73029 8.91107,-0.93634 13.49036,-0.70769 19.07319,-2.40881 18.73382,-5.70829 -0.22609,-2.19827 0.13111,-2.94214 1.64328,-3.42208 2.29861,-0.72956 4.58634,0.9078 4.58634,3.28251 0,3.76258 34.80075,-12.43684 42.70321,-19.87795 0.61501,-0.5791 2.52578,-1.92285 4.24616,-2.9861 1.72039,-1.06325 3.38424,-2.9543 3.69748,-4.20233 0.40926,-1.63064 1.18904,-2.26914 2.77124,-2.26914 4.76681,0 25.63269,-25.72571 33.48886,-41.28871 3.03086,-6.00411 3.11928,-6.3556 1.43625,-5.70976 -1.49457,0.57352 -3.73102,-1.90557 -2.91304,-3.22909 0.88268,-1.4282 3.02302,-1.15011 3.95415,0.51376 2.11501,3.7793 10.79714,-24.7546 12.96082,-42.595784 2.39883,-19.780263 1.21016,-25.74879 -5.46577,-27.444618 -3.2674,-0.829982 -6.81558,-1.792286 -7.88488,-2.138465 -1.92386,-0.622834 -1.94907,-0.455087 -2.41531,16.076263 -1.46231,51.848324 -29.54864,99.887494 -71.18054,121.747984 -2.00683,1.05377 -3.15211,2.23548 -2.87257,2.96396 0.25569,0.66632 0.01,1.2115 -0.54685,1.2115 -0.55646,0 -1.01174,-0.38452 -1.01174,-0.85449 0,-0.46996 -2.98178,0.522 -6.62618,2.20437 -3.6444,1.68238 -10.4207,4.19367 -15.05844,5.58066 -7.99719,2.39167 -8.40376,2.63533 -7.87996,4.72231 0.49829,1.98535 0.29508,2.17113 -2.07825,1.90001 -1.88934,-0.21583 -2.59181,-0.76886 -2.49311,-1.96276 0.099,-1.19816 -0.28371,-1.49618 -1.37094,-1.06742 -0.82959,0.32716 -5.20987,1.01232 -9.73395,1.52256 -15.02415,1.69449 -17.2132,3.47273 -5.25525,4.26903 1.27947,0.0852 2.0564,-0.38102 2.0564,-1.234 z m 25.59078,-3.65582 c 0,-0.25134 0.20564,-0.45698 0.45697,-0.45698 0.25134,0 0.45698,0.20564 0.45698,0.45698 0,0.25134 -0.20564,0.45698 -0.45698,0.45698 -0.25133,0 -0.45697,-0.20564 -0.45697,-0.45698 z m 45.69781,-20.10704 c 0,-0.25134 0.20564,-0.45698 0.45698,-0.45698 0.25133,0 0.45697,0.20564 0.45697,0.45698 0,0.25134 -0.20564,0.45698 -0.45697,0.45698 -0.25134,0 -0.45698,-0.20564 -0.45698,-0.45698 z m 1.52326,-1.98024 c -0.89853,-0.89853 -0.74132,-4.87443 0.19275,-4.87443 0.44112,0 1.30969,0.61168 1.93015,1.3593 1.79325,2.16072 -0.19129,5.44674 -2.1229,3.51513 z m -2.43722,-0.76163 c 0,-0.25134 0.20564,-0.45698 0.45698,-0.45698 0.25134,0 0.45698,0.20564 0.45698,0.45698 0,0.25134 -0.20564,0.45698 -0.45698,0.45698 -0.25134,0 -0.45698,-0.20564 -0.45698,-0.45698 z m 38.88218,-34.2102 c -0.67592,-1.09364 1.04339,-2.17726 2.26076,-1.42488 1.02213,0.63171 0.35111,2.27568 -0.92886,2.27568 -0.44335,0 -1.0427,-0.38287 -1.3319,-0.8508 z m 27.83663,-71.380424 c 0,-0.4869 0.61692,-0.88528 1.37093,-0.88528 0.75402,0 1.37094,0.16164 1.37094,0.35919 0,0.19757 -0.61692,0.59593 -1.37094,0.88528 -0.75401,0.28934 -1.37093,0.1277 -1.37093,-0.35919 z M 284.27083,217.07161 c 18.57523,-4.24485 49.06661,-18.32069 46.98449,-21.68962 -1.12291,-1.8169 0.4216,-3.64784 2.25119,-2.66867 2.78757,1.49186 25.39678,-18.39742 27.13347,-23.86926 0.28949,-0.91211 0.90991,-1.65839 1.37872,-1.65839 0.46879,0 0.85236,-0.61692 0.85236,-1.37093 0,-0.75402 0.60664,-1.37094 1.34809,-1.37094 1.01149,0 1.21068,-0.68704 0.79775,-2.75168 -0.48449,-2.42246 -0.31458,-2.72317 1.42017,-2.51338 2.4003,0.29028 7.65455,-8.07211 5.79427,-9.22183 -1.79928,-1.11202 -0.25373,-4.92801 1.78048,-4.39605 2.33629,0.61095 6.48901,-7.2425 4.48469,-8.48124 -0.67998,-0.42025 -0.94958,-1.22807 -0.59911,-1.79514 0.35047,-0.56708 1.06607,-0.76601 1.59021,-0.44207 1.19532,0.73875 2.5441,-1.30806 2.56254,-3.88871 0.007,-1.07725 0.57385,-2.17346 1.25811,-2.43604 2.28737,-0.87774 2.479,-4.32194 0.28562,-5.13332 -1.77196,-0.6555 -2.20595,-0.1854 -4.05917,4.397 -9.99133,24.70514 -28.73137,49.86658 -47.24532,63.43423 -3.28711,2.40891 -5.97658,4.77377 -5.97658,5.25525 0,0.48147 -0.62574,0.87541 -1.39053,0.87541 -2.23535,0 -8.43827,4.52571 -8.96533,6.5412 -0.35717,1.36585 -0.96257,1.69619 -2.3193,1.26558 -2.28419,-0.72497 -11.04322,3.12607 -11.06912,4.86671 -0.0118,0.79545 -0.68111,1.07579 -1.84299,0.77195 -1.00343,-0.2624 -3.98522,0.36794 -6.62618,1.40076 -2.64098,1.03283 -9.32586,3.02542 -14.85529,4.42797 -12.31873,3.12467 -8.26461,3.48857 5.02676,0.45121 z m 59.40715,-33.8917 c 0,-0.25134 0.20564,-0.45698 0.45698,-0.45698 0.25134,0 0.45698,0.20564 0.45698,0.45698 0,0.25133 -0.20564,0.45697 -0.45698,0.45697 -0.25134,0 -0.45698,-0.20564 -0.45698,-0.45697 z m -111.50266,34.27336 c 0,-0.50268 -1.18243,-0.91396 -2.62762,-0.91396 -1.4452,0 -4.0157,-0.26472 -5.71223,-0.58826 -1.69653,-0.32354 -2.75886,-0.23771 -2.36072,0.19074 0.39814,0.42845 2.66018,1.04949 5.02676,1.3801 2.36658,0.3306 4.61134,0.65605 4.98834,0.72322 0.37701,0.0672 0.68547,-0.28917 0.68547,-0.79184 z M 163.6286,195.11528 c 0,-0.22167 -0.47482,-0.6965 -1.05517,-1.05517 -0.65375,-0.40404 -0.80708,-0.25072 -0.40303,0.40303 0.65113,1.05357 1.4582,1.41451 1.4582,0.65214 z m -5.10255,-3.96504 c -5.54962,-4.89756 -9.01566,-7.36854 -9.72278,-6.93151 -0.79557,0.49168 2.38438,3.30377 7.95433,7.03417 4.64704,3.11229 5.36427,3.07065 1.76845,-0.10266 z m -13.7679,-10.9518 c 0.40582,-0.65664 -5.3225,-7.52903 -6.27565,-7.52903 -1.33653,0 -0.11278,3.44524 2.01121,5.66221 2.52996,2.64072 3.51866,3.07353 4.26444,1.86682 z m -0.32263,-5.24414 c 0,-0.25134 -0.20564,-0.45698 -0.45698,-0.45698 -0.25133,0 -0.45697,0.20564 -0.45697,0.45698 0,0.25134 0.20564,0.45698 0.45697,0.45698 0.25134,0 0.45698,-0.20564 0.45698,-0.45698 z m -1.82791,-1.82791 c 0,-0.25134 -0.20564,-0.45698 -0.45698,-0.45698 -0.25134,0 -0.45698,0.20564 -0.45698,0.45698 0,0.25134 0.20564,0.45698 0.45698,0.45698 0.25134,0 0.45698,-0.20564 0.45698,-0.45698 z m -8.8302,-6.85467 c -2.34218,-3.01606 -4.67233,-5.48374 -5.17813,-5.48374 -0.50579,0 -0.65645,-0.26317 -0.33479,-0.58484 0.32167,-0.32166 -0.54775,-2.0696 -1.93202,-3.88432 -1.38428,-1.8147 -3.08037,-4.41645 -3.76911,-5.78166 -0.68873,-1.3652 -1.66508,-2.22703 -2.16966,-1.91518 -0.50458,0.31185 -0.66556,0.15947 -0.35773,-0.33861 0.30784,-0.49808 -1.14255,-4.36597 -3.22306,-8.59531 -2.08052,-4.22934 -5.34567,-12.20253 -7.2559,-17.71819 -3.02565,-8.73635 -3.73823,-10.03172 -5.53046,-10.05352 -2.63487,-0.0321 -3.17188,-2.59897 -0.99842,-4.77243 1.45122,-1.45122 1.53918,-2.23491 0.69662,-6.20646 -0.58164,-2.741644 -1.23989,-4.099654 -1.65869,-3.422004 -1.43493,2.32176 -4.385779,1.31518 -4.074527,-1.38989 0.223073,-1.93871 0.759378,-2.49679 2.345597,-2.44081 3.41172,0.1204 2.4514,-7.52534 -1.007122,-8.01833 -2.738501,-0.39035 -2.662563,-3.83635 0.09317,-4.22772 1.729152,-0.24558 3.389492,-5.648662 1.735812,-5.648662 -6.653712,0 -7.307379,5.043542 -3.335072,25.732576 4.623142,24.07878 23.051062,61.65441 29.593892,60.34371 2.09852,-0.42039 3.39659,1.45077 2.76159,3.9808 -0.55692,2.21896 1.80661,4.64115 5.11656,5.24355 1.25669,0.22872 2.38728,0.47186 2.51243,0.54031 0.12514,0.0685 -1.6888,-2.34322 -4.03098,-5.35927 z m 5.07623,1.37093 c -1.62447,-2.26204 -3.22661,-4.1128 -3.56029,-4.1128 -0.33368,0 -0.62818,-0.5141 -0.65445,-1.14245 -0.0262,-0.62834 -1.94996,-4.43043 -4.27489,-8.44908 -2.32492,-4.01865 -4.88584,-9.03147 -5.69095,-11.1396 -1.29475,-3.39027 -1.65981,-3.71058 -3.16075,-2.77322 -2.64474,1.65166 7.17257,18.61378 16.38098,28.30262 4.29234,4.51629 4.55918,4.32583 0.96035,-0.68547 z m -17.58268,-32.40749 c -0.55923,-1.27756 -1.58889,-2.67935 -2.28813,-3.11509 -0.90941,-0.56671 -0.97502,-0.97539 -0.23047,-1.43555 0.76303,-0.47158 0.67994,-1.66635 -0.31126,-4.47573 -0.74369,-2.10783 -1.38735,-4.13515 -1.43036,-4.50516 -0.043,-0.37001 -1.04816,-0.54564 -2.23366,-0.39029 -2.76035,0.36173 -3.53601,-0.91105 -1.90028,-3.11817 1.25798,-1.69741 1.31471,-1.69543 2.68353,0.0938 1.74075,2.27547 1.79192,1.17245 0.19074,-4.1128 -1.99894,-6.59821 -3.49608,-22.478584 -3.15892,-33.506914 0.31188,-10.201018 0.31188,-10.201018 -2.88697,-8.811713 -1.75936,0.764122 -3.9751,1.612987 -4.92386,1.886369 -1.90178,0.54799 -1.62065,14.823114 0.4718,23.957724 0.5211,2.27487 1.09163,5.204694 1.26784,6.510724 0.82226,6.09428 8.36496,28.62541 11.02223,32.92497 1.34098,2.16975 4.74898,0.43072 3.72777,-1.90221 z m -13.39369,-29.74153 c 0,-0.75402 0.61692,-1.37094 1.37094,-1.37094 0.75401,0 1.37093,0.61692 1.37093,1.37094 0,0.75401 -0.61692,1.37093 -1.37093,1.37093 -0.75402,0 -1.37094,-0.61692 -1.37094,-1.37093 z m 279.21753,11.42014 c 2.76354,-3.05367 3.40089,-10.04921 0.91557,-10.04921 -1.6241,0 -2.23774,0.89151 -3.34036,4.85301 -1.90715,6.85196 -0.94315,8.91773 2.42479,5.1962 z m 4.75391,-30.384744 c -0.21784,-1.13102 -0.39608,-0.20564 -0.39608,2.05641 0,2.26204 0.17824,3.18742 0.39608,2.0564 0.21785,-1.13102 0.21785,-2.98178 0,-4.11281 z M 99.308966,73.550925 c 1.645514,-1.152563 1.964624,-2.610826 2.449994,-11.195964 0.57002,-10.082528 2.30323,-20.660511 4.81431,-29.382313 1.283,-4.456268 1.27725,-4.983347 -0.065,-5.964826 -1.82324,-1.333188 -0.97734,-3.939517 1.53766,-4.737748 3.01392,-0.956583 5.74183,-7.973866 3.43194,-8.828351 -2.57363,-0.952041 -3.18183,-0.77987 -2.85401,0.807928 0.18908,0.915775 -0.10279,1.160194 -0.84078,0.704094 -0.77905,-0.481482 -0.95605,-0.244264 -0.56945,0.76319 0.30852,0.803998 0.17765,1.591207 -0.29083,1.749348 -1.07118,0.361598 -6.67168,16.271931 -5.97353,16.970075 0.28294,0.282952 0.13345,0.973528 -0.33222,1.534615 -1.57894,1.902509 -4.732816,20.052181 -5.126629,29.502315 -0.417719,10.02376 -0.05509,10.790835 3.818545,8.077637 z M 380.23623,25.065473 c 0,-0.251338 -0.20564,-0.456978 -0.45698,-0.456978 -0.25133,0 -0.45697,0.20564 -0.45697,0.456978 0,0.251338 0.20564,0.456978 0.45697,0.456978 0.25134,0 0.45698,-0.20564 0.45698,-0.456978 z M 113.67862,8.4343124 c 2.41829,0.927985 4.82943,-4.400124 2.87543,-6.354107 -0.79869,-0.798697 -1.56504,-1.30039497 -1.70297,-1.11488997 -0.13794,0.18551497 -1.3522,2.26129297 -2.69835,4.61284697 -2.5909,4.5259746 -3.28835,6.8202246 -1.20878,3.97624 0.75517,-1.032743 1.82276,-1.470026 2.73467,-1.12009 z m 9.00315,-13.300906 c 2.45796,-5.092408 14.79762,-20.9338564 21.85935,-28.0626604 5.96302,-6.019654 6.17845,-6.345827 1.84966,-2.800563 -7.94744,6.508922 -18.19186,17.342146 -23.35186,24.694019 -6.59587,9.3976634 -6.48403,9.1395624 -3.96041,9.1395624 1.5443,0 2.58274,-0.856039 3.60326,-2.970358 z M 297.67552,-50.031268 c -0.33512,-0.335111 -0.88349,-0.335111 -1.21861,0 -0.33511,0.335121 -0.0609,0.609308 0.6093,0.609308 0.67024,0 0.94442,-0.274187 0.60931,-0.609308 z M 195.61707,-63.588282 c 0,-0.251338 -0.20564,-0.456978 -0.45698,-0.456978 -0.25133,0 -0.45697,0.20564 -0.45697,0.456978 0,0.251338 0.20564,0.456978 0.45697,0.456978 0.25134,0 0.45698,-0.20564 0.45698,-0.456978 z m 2.43722,-1.066285 c -0.33512,-0.335112 -0.88349,-0.335112 -1.21861,0 -0.33511,0.33512 -0.0609,0.609307 0.6093,0.609307 0.67024,0 0.94442,-0.274187 0.60931,-0.609307 z m 122.2373,288.168327 c -0.68598,-1.78764 0.24865,-3.31863 2.02593,-3.31863 0.89728,0 1.27832,0.69479 1.0885,1.98482 -0.35463,2.41012 -2.37017,3.2733 -3.11443,1.33381 z m -19.56955,-1.94769 c 0,-0.25134 0.20564,-0.45698 0.45698,-0.45698 0.25134,0 0.45698,0.20564 0.45698,0.45698 0,0.25134 -0.20564,0.45698 -0.45698,0.45698 -0.25134,0 -0.45698,-0.20564 -0.45698,-0.45698 z m 17.645,-5.66612 c -1.43503,-0.51648 -0.44971,-3.01647 1.18889,-3.01647 0.70022,0 1.27315,0.59265 1.27315,1.317 0,1.57259 -0.96458,2.23841 -2.46204,1.69947 z M 181.90773,214.7114 c 0,-0.50268 0.41128,-0.91396 0.91395,-0.91396 0.50268,0 0.91396,0.41128 0.91396,0.91396 0,0.50267 -0.41128,0.91395 -0.91396,0.91395 -0.50267,0 -0.91395,-0.41128 -0.91395,-0.91395 z m 63.06298,-3.93812 c 0,-0.65794 0.58754,-1.9946 1.30566,-2.97036 1.50697,-2.04765 3.0556,0.096 2.01965,2.79567 -0.64657,1.68494 -3.32531,1.82566 -3.32531,0.17469 z m -25.99951,-4.20943 c -0.29427,-0.47614 -0.14547,-1.10648 0.33067,-1.40075 0.47615,-0.29427 1.10648,-0.14547 1.40075,0.33067 0.29428,0.47615 0.14547,1.10648 -0.33067,1.40075 -0.47614,0.29428 -1.10648,0.14548 -1.40075,-0.33067 z m 50.06702,0.22659 c 0.33512,-0.33511 0.88349,-0.33511 1.21861,0 0.33512,0.33512 0.0609,0.60931 -0.6093,0.60931 -0.67023,0 -0.94442,-0.27419 -0.60931,-0.60931 z m -44.17455,-2.17349 c -17.05197,-2.03521 -19.99412,-9.41442 -5.30796,-13.3129 7.34852,-1.95069 8.62653,-6.10753 7.82693,-25.45781 -0.68117,-16.48425 -2.39556,-20.00871 -21.07136,-43.3187 -12.52323,-15.63073 -12.37899,-15.72279 25.17048,-16.06474 26.02061,-0.23696 25.18376,-0.0478 28.64512,-6.475164 1.97335,-3.66429 5.86482,-4.55918 5.86482,-1.34869 0,1.00536 -0.58236,1.827924 -1.29413,1.827924 -0.71177,0 -2.5971,1.64512 -4.18961,3.65582 -1.99522,2.51918 -2.47682,3.65583 -1.54898,3.65583 4.96843,0 5.506,3.1147 1.40903,8.16392 -22.72759,28.01013 -25.01687,31.83396 -26.35629,44.02338 -1.56963,14.28451 0.59076,32.4148 3.63811,30.53144 1.12638,-0.69613 9.6989,2.14854 11.9376,3.96133 4.55359,3.68727 0.16951,8.54904 -8.74156,9.69405 -8.79454,1.13004 -10.08924,1.16766 -15.9822,0.46431 z m 14.14817,-4.0677 c 8.80869,-0.84864 12.19966,-4.07759 6.64434,-6.32686 -5.0176,-2.03156 -8.65337,-2.69183 -7.31165,-1.32782 3.15061,3.20294 0.33438,4.90552 -9.38658,5.67476 -5.04366,0.39912 -6.68032,0.20201 -7.96323,-0.959 -1.87183,-1.69398 -2.13134,-3.8873 -0.47234,-3.99208 0.80361,-0.0507 0.82885,-0.20046 0.0851,-0.50479 -1.65814,-0.67842 -7.62523,2.1633 -7.62523,3.63137 0,2.25282 11.21956,5.25554 17.36517,4.64748 1.75936,-0.17408 5.65836,-0.55345 8.66443,-0.84306 z m -4.0977,-7.59295 c -3.44492,-4.68129 -4.99694,-32.67751 -2.27732,-41.07939 0.59145,-1.82718 0.35635,-2.05641 -2.10914,-2.05641 -2.7748,0 -2.7748,0 -1.77455,3.42734 1.43494,4.91681 1.10485,28.85969 -0.47818,34.68399 -1.52466,5.60956 -1.33259,6.01263 3.44339,7.22635 4.77466,1.21338 5.39468,0.78619 3.1958,-2.20188 z m -10.05047,2.10504 c 0,-0.25134 -0.20564,-0.45698 -0.45698,-0.45698 -0.25133,0 -0.45698,0.20564 -0.45698,0.45698 0,0.25134 0.20565,0.45698 0.45698,0.45698 0.25134,0 0.45698,-0.20564 0.45698,-0.45698 z m -1.82791,-2.74187 c 0,-0.25134 -0.20564,-0.45698 -0.45698,-0.45698 -0.25134,0 -0.45698,0.20564 -0.45698,0.45698 0,0.25134 0.20564,0.45698 0.45698,0.45698 0.25134,0 0.45698,-0.20564 0.45698,-0.45698 z m 12.87478,-51.34257 c 2.97412,-1.96819 6.3183,-6.11548 6.3183,-7.83568 0,-1.62751 -6.33825,0.84316 -7.81402,3.04593 -0.98039,1.46334 -2.33118,2.6618 -3.00177,2.66325 -0.73977,0.002 -0.10179,-1.40825 1.6223,-3.58512 1.68903,-2.13257 2.46158,-3.82258 1.90472,-4.16674 -1.54379,-0.95412 -1.05878,-6.39325 0.74251,-8.32671 1.66394,-1.78602 1.58701,-1.80428 -8.38425,-1.989 -5.53498,-0.10255 -10.8431,-0.43386 -11.79583,-0.73624 -1.64837,-0.52318 1.72984,6.30687 3.87724,7.83896 2.06828,1.47564 3.59987,7.03257 1.59962,5.80372 -0.62835,-0.38602 0.42247,1.12964 2.33516,3.36814 5.84378,6.83926 7.4355,7.33455 12.59602,3.91949 z m 8.90947,-14.70686 c 1.01905,-0.96187 0.86451,-1.46094 -0.91037,-2.93995 -2.73961,-2.28292 -3.39578,-2.26696 -5.96319,0.14499 -2.40099,2.25562 -2.79614,3.95335 -0.73616,3.16286 0.80247,-0.30794 1.83765,0.20498 2.47571,1.22668 1.13169,1.81211 1.71758,1.63014 5.13401,-1.59458 z m 5.63444,-6.15311 c 0,-0.25134 -0.20564,-0.45698 -0.45698,-0.45698 -0.25134,0 -0.45698,0.20564 -0.45698,0.45698 0,0.25133 0.20564,0.45697 0.45698,0.45697 0.25134,0 0.45698,-0.20564 0.45698,-0.45697 z m -42.95595,-0.91396 c 0,-0.25134 -0.20564,-0.45698 -0.45698,-0.45698 -0.25133,0 -0.45697,0.20564 -0.45697,0.45698 0,0.25134 0.20564,0.45698 0.45697,0.45698 0.25134,0 0.45698,-0.20564 0.45698,-0.45698 z m 22.39193,-1.32881 c -4.02141,-0.33139 -7.92857,-0.853 -8.68258,-1.15912 -2.67304,-1.0852 -13.22216,-1.68606 -12.23286,-0.69676 1.5257,1.5257 8.38168,2.42433 18.63055,2.44194 9.59654,0.0164 9.59654,0.0164 2.28489,-0.58606 z m 8.68258,0.41485 c 0,-0.25133 -0.20564,-0.45697 -0.45697,-0.45697 -0.25134,0 -0.45698,0.20564 -0.45698,0.45697 0,0.25134 0.20564,0.45698 0.45698,0.45698 0.25133,0 0.45697,-0.20564 0.45697,-0.45698 z m 10.66283,-1.06628 c -0.33512,-0.33511 -0.88349,-0.33511 -1.21861,0 -0.33511,0.33512 -0.0609,0.60931 0.6093,0.60931 0.67023,0 0.94442,-0.27419 0.60931,-0.60931 z m -5.25525,-4.53471 c 0.20944,-0.18684 -6.57668,-0.2631 -15.08028,-0.16945 -13.03366,0.14354 -14.2414,0.26356 -7.69246,0.7644 7.24362,0.55399 21.9145,0.1707 22.77274,-0.59495 z m 6.22633,0.022 c -0.30371,-0.3037 -1.092,-0.33616 -1.75175,-0.0721 -0.72909,0.29175 -0.51253,0.50832 0.55218,0.55218 0.96346,0.0397 1.50327,-0.17633 1.19957,-0.48003 z m -18.48858,-1.92217 c 19.91108,-0.52819 20.56402,-0.57004 20.56402,-1.31791 0,-2.17068 -40.9486,-1.57811 -49.20241,0.71201 -4.13474,1.14723 0.1113,2.26442 6.24647,1.64354 3.26739,-0.33067 13.34376,-0.79761 22.39192,-1.03764 z m 26.96171,0.72395 c 2.28489,-0.65428 2.28489,-0.65428 -0.22268,-1.15199 -1.54033,-0.30573 -2.90553,-0.0182 -3.53924,0.74538 -1.16918,1.40876 -0.1301,1.52107 3.76192,0.40661 z m 104.82516,92.56159 c -0.73019,-0.73019 0.0952,-2.15741 1.24771,-2.15741 0.47301,0 0.86001,0.61692 0.86001,1.37093 0,1.41336 -1.07843,1.81576 -2.10772,0.78648 z m -219.57588,-2.23704 c -0.86372,-1.39752 1.01074,-3.01491 2.72965,-2.35531 0.7878,0.30231 1.43237,1.17948 1.43237,1.94928 0,1.5973 -3.23097,1.9125 -4.16202,0.40603 z m -22.90937,-4.90336 c -0.2801,-0.72995 -0.23058,-1.77812 0.11005,-2.32927 0.78099,-1.26365 3.19847,0.54838 3.19847,2.39741 0,1.67412 -2.66098,1.61931 -3.30852,-0.0681 z m 29.30706,-0.58038 c -0.94185,-1.52395 1.17645,-3.27152 2.43727,-2.0107 1.05463,1.05463 0.39457,3.00429 -1.01712,3.00429 -0.44334,0 -1.08241,-0.44712 -1.42015,-0.99359 z m 198.46597,-1.60549 c -0.31627,-0.51175 -0.12969,-1.20568 0.41463,-1.54209 1.40519,-0.86845 2.31182,0.32111 1.13877,1.49417 -0.65639,0.65638 -1.1676,0.67215 -1.5534,0.0479 z m -176.93878,-7.69154 c 0,-1.35771 3.2092,-3.56067 4.01427,-2.7556 1.50908,1.50908 0.44773,3.90669 -1.72938,3.90669 -1.25669,0 -2.28489,-0.51799 -2.28489,-1.15109 z m 71.28859,0.23713 c 0,-0.50268 0.41128,-0.91396 0.91395,-0.91396 1.30409,0 1.13428,-7.6397 -0.19946,-8.97344 -0.87525,-0.87525 -0.2414,-1.00385 2.96322,-0.60121 5.17548,0.65027 6.08094,1.54819 4.67434,4.63537 -0.90603,1.98851 -0.84876,2.81075 0.32005,4.59457 1.28022,1.95388 1.28143,2.17263 0.012,2.17263 -0.77638,0 -1.88007,-1.0282 -2.45266,-2.28489 -0.57259,-1.25669 -1.43091,-2.2849 -1.9074,-2.2849 -0.47648,0 -0.60827,1.02821 -0.29286,2.2849 0.49803,1.98429 0.27058,2.28489 -1.72883,2.28489 -1.26629,0 -2.30232,-0.41128 -2.30232,-0.91396 z m 6.23621,-7.00742 c -0.44468,-2.29291 -2.58039,-2.60775 -2.58039,-0.38039 0,1.12264 0.59013,1.90407 1.43795,1.90407 0.85111,0 1.31735,-0.62183 1.14244,-1.52368 z m 119.64807,6.46108 c -1.023,-1.02299 0.43132,-3.10949 2.16737,-3.10949 1.12082,0 1.73013,0.64375 1.73013,1.82792 0,1.74266 -2.58607,2.59301 -3.8975,1.28157 z m -102.08927,-2.13545 c -0.52036,-0.9723 -0.94611,-2.58805 -0.94611,-3.59054 0,-1.00249 -0.64629,-2.46901 -1.43622,-3.25893 -0.78991,-0.78992 -1.09837,-1.44183 -0.68546,-1.44869 0.41291,-0.007 1.68224,-0.26208 2.82073,-0.56713 1.64983,-0.44207 1.95409,-0.25263 1.499,0.93332 -1.23049,3.20659 0.4705,7.87189 2.87012,7.87189 2.67007,0 3.08454,-3.39286 0.92112,-7.54014 -1.39643,-2.67694 2.09069,-4.05328 3.69453,-1.45821 0.40404,0.65376 0.25071,0.80708 -0.40304,0.40304 -1.30381,-0.8058 -1.40075,2.37567 -0.19996,6.56258 0.47037,1.64008 0.49879,2.76168 0.0632,2.49243 -0.43564,-0.26923 -1.0504,-0.0716 -1.36614,0.43935 -1.02026,1.65082 -5.81431,1.06209 -6.83173,-0.83897 z m 120.9796,0.4986 c -0.59588,-1.55284 0.20493,-3.30055 1.51233,-3.30055 1.15262,0 1.10278,3.39791 -0.0604,4.1168 -0.50623,0.31286 -1.15959,-0.0545 -1.45193,-0.81625 z m -144.77461,-0.1017 c 0,-0.25134 0.20564,-0.45698 0.45697,-0.45698 0.25134,0 0.45698,0.20564 0.45698,0.45698 0,0.25134 -0.20564,0.45698 -0.45698,0.45698 -0.25133,0 -0.45697,-0.20564 -0.45697,-0.45698 z M 210.01188,180.265 c -1.63363,-0.42691 -2.2597,-2.11185 -0.7847,-2.11185 0.96958,0 4.04164,-7.32973 3.35841,-8.01295 -0.26022,-0.26023 -1.09999,0.0471 -1.86615,0.68296 -1.48784,1.23479 -1.84601,0.31921 -0.62671,-1.60199 0.58928,-0.92849 1.42484,-0.87649 4.13904,0.25757 1.8704,0.7815 3.76547,1.19548 4.21129,0.91995 0.44581,-0.27553 1.11056,0.0198 1.47723,0.65639 0.36666,0.63654 0.31683,0.83918 -0.11075,0.45031 -0.42759,-0.38888 -1.28267,0.43368 -1.90022,1.82791 -1.038,2.34352 -1.1284,2.37966 -1.19702,0.47856 -0.0409,-1.13103 -0.42313,-2.05641 -0.84955,-2.05641 -1.02274,0 -3.88643,7.33741 -3.25955,8.35171 0.50921,0.82392 0.0618,0.85117 -2.59132,0.15784 z m 78.82873,-1.3098 c 0,-1.64435 0.21471,-1.76162 1.40967,-0.76991 1.00166,0.83131 1.69284,0.88675 2.38804,0.19155 1.48998,-1.48998 0.0589,-2.96556 -2.87611,-2.96556 -4.86425,0 -4.50031,-5.73148 0.4162,-6.5543 1.13259,-0.18955 1.91603,0.28974 2.12341,1.29905 0.18076,0.87968 -0.1128,1.59942 -0.65233,1.59942 -0.53953,0 -0.98097,-0.39837 -0.98097,-0.88527 0,-0.48689 -0.6343,-0.64186 -1.40956,-0.34437 -2.29154,0.87934 -0.97014,2.56548 2.39617,3.05756 4.1697,0.60951 4.99151,4.54865 1.29987,6.23067 -3.33922,1.52145 -4.11439,1.35964 -4.11439,-0.85884 z m -167.86102,-0.40651 c -0.30231,-0.7878 -0.0808,-1.90119 0.4922,-2.47421 1.28634,-1.28634 4.33372,1.34215 3.36788,2.90492 -0.91222,1.47599 -3.22754,1.21766 -3.86008,-0.43071 z m 126.73299,-3.59439 c 0,-0.25134 0.20564,-0.45698 0.45698,-0.45698 0.25133,0 0.45697,0.20564 0.45697,0.45698 0,0.25134 -0.20564,0.45698 -0.45697,0.45698 -0.25134,0 -0.45698,-0.20564 -0.45698,-0.45698 z m -49.35364,-3.65582 c 0,-0.25134 0.20564,-0.45698 0.45698,-0.45698 0.25134,0 0.45698,0.20564 0.45698,0.45698 0,0.25133 -0.20564,0.45697 -0.45698,0.45697 -0.25134,0 -0.45698,-0.20564 -0.45698,-0.45697 z m -92.69075,-1.24828 c -0.3937,-0.63702 -0.469,-1.40505 -0.16733,-1.70673 0.81795,-0.81795 1.7098,0.38505 1.26801,1.71043 -0.30958,0.92873 -0.52485,0.92801 -1.10068,-0.004 z m 85.42274,-0.0571 c -0.73001,-0.47239 -1.61704,-0.67982 -1.97117,-0.46095 -0.35412,0.21886 -0.42861,-0.42519 -0.16553,-1.43124 0.55728,-2.13104 2.09306,-2.46727 2.09306,-0.45824 0,0.76163 0.81241,1.37093 1.82791,1.37093 2.18315,0 2.21788,-0.25061 0.49614,-3.58008 -2.03163,-3.92875 0.12129,-6.6301 3.70238,-4.64552 2.52864,1.40133 3.10972,2.89533 1.35377,3.48065 -0.54038,0.18013 -0.98251,-0.32369 -0.98251,-1.1196 0,-0.7959 -0.61692,-1.44709 -1.37093,-1.44709 -1.59618,0 -1.81408,1.93313 -0.3796,3.36761 2.86364,2.86365 -1.15116,7.15753 -4.60352,4.92353 z m 117.37342,-3.12822 c -1.97166,-3.88878 -4.08649,-5.38971 -4.08649,-2.90026 0,1.96625 -1.47193,1.02523 -2.08933,-1.33573 -0.26514,-1.01388 -0.11156,-1.61443 0.34127,-1.33456 0.45284,0.27987 2.21672,-0.55392 3.91973,-1.85287 2.67114,-2.03738 3.17395,-2.15958 3.6612,-0.88982 0.8368,2.18065 0.70739,2.48663 -0.80611,1.90584 -2.7015,-1.03666 0.082,5.32152 3.35938,7.67357 0.37428,0.26861 -0.0229,0.91648 -0.88245,1.43971 -1.3044,0.79394 -1.86973,0.34628 -3.4172,-2.70588 z m -155.80322,2.14872 c 0,-0.50267 0.41128,-0.91395 0.91395,-0.91395 0.50268,0 0.91396,0.41128 0.91396,0.91395 0,0.50268 -0.41128,0.91396 -0.91396,0.91396 -0.50267,0 -0.91395,-0.41128 -0.91395,-0.91396 z m 66.7188,-2.28489 c 0,-0.25133 0.20564,-0.45697 0.45698,-0.45697 0.25134,0 0.45698,0.20564 0.45698,0.45697 0,0.25134 -0.20564,0.45698 -0.45698,0.45698 -0.25134,0 -0.45698,-0.20564 -0.45698,-0.45698 z m 95.05145,-1.82791 c 0,-0.25134 0.20564,-0.45698 0.45698,-0.45698 0.25134,0 0.45698,0.20564 0.45698,0.45698 0,0.25134 -0.20564,0.45698 -0.45698,0.45698 -0.25134,0 -0.45698,-0.20564 -0.45698,-0.45698 z m 0,-1.82791 c 0,-0.25134 0.20564,-0.45698 0.45698,-0.45698 0.25134,0 0.45698,0.20564 0.45698,0.45698 0,0.25134 -0.20564,0.45698 -0.45698,0.45698 -0.25134,0 -0.45698,-0.20564 -0.45698,-0.45698 z m 74.93606,-1.83798 c -0.89659,-1.08033 -0.89659,-1.64141 0,-2.72174 1.37482,-1.65655 2.75022,-0.97597 2.75022,1.36087 0,2.33684 -1.3754,3.01743 -2.75022,1.36087 z m -86.81749,-1.81785 c 0,-0.25133 0.20564,-0.45697 0.45698,-0.45697 0.25134,0 0.45698,0.20564 0.45698,0.45697 0,0.25134 -0.20564,0.45698 -0.45698,0.45698 -0.25134,0 -0.45698,-0.20564 -0.45698,-0.45698 z m 19.54135,-5.69972 c -3.13683,-3.22621 -3.54917,-4.05055 -2.47288,-4.9438 1.02489,-0.85058 1.58234,-0.657 2.699,0.93726 1.4956,2.13526 2.5569,3.15247 5.1533,4.93917 1.54388,1.0624 1.54388,1.15146 0,2.02523 -1.30686,0.73962 -2.33294,0.17544 -5.37942,-2.95786 z m -148.77087,1.44561 c -1.5675,-2.23792 -1.02867,-3.742 2.53449,-7.0747 1.28736,-1.20409 2.12341,-2.54075 1.8579,-2.97036 -0.72752,-1.17716 0.9311,-0.93746 2.1842,0.31564 1.42644,1.42644 1.40304,2.62033 -0.0457,2.33059 -0.62835,-0.12567 -1.02944,0.31619 -0.89131,0.98189 0.13812,0.66571 -0.11538,0.98387 -0.56333,0.70702 -1.2172,-0.75228 -4.00707,2.73486 -3.65223,4.56505 0.53726,2.77108 2.51278,2.46364 5.89358,-0.91717 3.03581,-3.0358 4.92551,-3.55167 4.92551,-1.3446 0,0.50268 -0.34834,0.69867 -0.7741,0.43554 -0.42575,-0.26313 -1.94218,0.7408 -3.36984,2.23096 -3.06257,3.19663 -6.1791,3.48144 -8.09918,0.74014 z m 209.03883,0.50605 c -0.64659,-1.68498 1.56374,-3.44124 2.78896,-2.21603 0.99758,0.99758 0.082,3.6792 -1.25616,3.6792 -0.53423,0 -1.22399,-0.65843 -1.5328,-1.46317 z m -211.41901,-8.13337 c 0,-0.25133 0.20564,-0.45697 0.45698,-0.45697 0.25134,0 0.45698,0.20564 0.45698,0.45697 0,0.25134 -0.20564,0.45698 -0.45698,0.45698 -0.25134,0 -0.45698,-0.20564 -0.45698,-0.45698 z m 1.82792,-1.82791 c 0,-0.25134 0.20564,-0.45698 0.45697,-0.45698 0.25134,0 0.45698,0.20564 0.45698,0.45698 0,0.25134 -0.20564,0.45698 -0.45698,0.45698 -0.25133,0 -0.45697,-0.20564 -0.45697,-0.45698 z M 332.939,141.6465 c -2.15093,-1.79437 -2.86538,-6.75538 -1.12754,-7.82942 0.51087,-0.31574 0.71456,-0.92083 0.45263,-1.34464 -0.73344,-1.18673 2.14648,-0.51448 3.42602,0.79972 0.90892,0.93351 0.77142,1.10354 -0.69471,0.859 -2.17945,-0.3635 -3.06836,3.13359 -1.32919,5.22917 1.45361,1.7515 6.35595,1.75429 6.35595,0.004 0,-0.72435 0.41128,-1.57119 0.91395,-1.88186 1.67347,-1.03426 0.94214,2.25672 -0.91395,4.11281 -2.26426,2.26425 -4.41207,2.27989 -7.08316,0.0515 z m -177.536,0.4054 c 0,-0.25134 0.20564,-0.45698 0.45698,-0.45698 0.25133,0 0.45697,0.20564 0.45697,0.45698 0,0.25133 -0.20564,0.45697 -0.45697,0.45697 -0.25134,0 -0.45698,-0.20564 -0.45698,-0.45697 z m 3.26762,-3.08758 c -0.27284,-0.44147 0.62826,-1.03502 2.00246,-1.31898 1.3742,-0.28398 3.8118,-1.72897 5.41688,-3.2111 2.7853,-2.57192 2.98591,-2.62009 4.40083,-1.05663 0.97815,1.08084 1.15131,1.84283 0.509,2.2398 -0.53542,0.3309 -0.97349,0.36658 -0.97349,0.0792 0,-0.28731 -1.63695,0.51098 -3.63767,1.77398 -3.70218,2.33707 -6.82343,2.94113 -7.71801,1.49367 z m -65.8671,-13.48769 c -0.993717,-0.99372 -1.189426,-1.80052 -0.583695,-2.40625 1.369684,-1.36969 3.776013,-0.0667 3.776013,2.04463 0,2.24391 -1.176727,2.3772 -3.192318,0.36162 z m 304.79788,-4.44575 c 0,-0.75401 0.41128,-1.37093 0.91396,-1.37093 0.50267,0 0.91395,0.61692 0.91395,1.37093 0,0.75402 -0.41128,1.37094 -0.91395,1.37094 -0.50268,0 -0.91396,-0.61692 -0.91396,-1.37094 z m 17.36517,0 c 0,-0.83779 0.44213,-1.37589 0.9825,-1.19575 0.54038,0.18012 0.98251,0.71821 0.98251,1.19575 0,0.47754 -0.44213,1.01564 -0.98251,1.19576 -0.54037,0.18013 -0.9825,-0.35796 -0.9825,-1.19576 z m -150.80278,-8.2256 c 0,-0.25134 0.20564,-0.45698 0.45698,-0.45698 0.25134,0 0.45698,0.20564 0.45698,0.45698 0,0.25133 -0.20564,0.45697 -0.45698,0.45697 -0.25134,0 -0.45698,-0.20564 -0.45698,-0.45697 z m 131.32989,-2.86935 c -0.32145,-0.32145 -0.29347,-1.04119 0.0622,-1.59942 0.35565,-0.55824 0.65293,-1.42625 0.66063,-1.92893 0.0232,-1.51738 2.48645,-1.02651 3.5702,0.71149 1.38206,2.21638 -2.40716,4.70269 -4.293,2.81686 z M 75.529606,108.16074 c -0.804685,-2.09697 -0.739496,-2.21014 1.273151,-2.21014 1.218608,0 1.827913,0.60931 1.827913,1.82792 0,2.16901 -2.306326,2.45327 -3.101064,0.38222 z m 95.410644,-1.75316 c 0,-0.25134 0.20564,-0.45698 0.45698,-0.45698 0.25134,0 0.45698,0.20564 0.45698,0.45698 0,0.25134 -0.20564,0.45698 -0.45698,0.45698 -0.25134,0 -0.45698,-0.20564 -0.45698,-0.45698 z m 6.27999,-0.92169 c -13.31401,-7.234364 -0.64408,-26.192374 19.80109,-29.628341 6.43102,-1.08078 6.43102,-1.08078 8.90098,-8.114277 9.80815,-27.929762 11.17989,-55.762654 2.64479,-53.663297 -6.3679,1.566302 -15.89195,9.431699 -20.89946,17.259725 -1.61426,2.523498 -2.54078,3.251208 -3.24405,2.547937 -2.37318,-2.373179 10.78147,-16.52262 18.95661,-20.390163 18.84881,-8.9171046 24.16504,3.405328 16.81989,38.986686 -1.03769,5.02676 -2.80807,11.915705 -3.93417,15.308767 -2.26853,6.835278 -0.5545,7.887214 7.92269,4.862275 1.89077,-0.674683 3.63418,-0.908875 3.87426,-0.520416 0.91915,1.487217 -2.72113,3.157088 -8.91251,4.088355 -6.44126,0.968845 -6.44126,0.968845 -8.81806,5.459035 -2.93484,5.54438 -2.74006,5.25909 -8.17964,11.98099 -9.59448,11.856304 -17.75179,15.724424 -24.93242,11.822724 z m 6.32332,-6.752714 c 8.64616,-4.42052 21.21933,-21.65921 15.04091,-20.62214 -13.25983,2.22573 -21.96754,8.36728 -23.62689,16.66405 -1.09896,5.494774 2.4134,7.113964 8.58598,3.95809 z m -1.63583,-1.46516 c 0,-0.25134 0.20564,-0.45698 0.45698,-0.45698 0.25133,0 0.45697,0.20564 0.45697,0.45698 0,0.25134 -0.20564,0.45698 -0.45697,0.45698 -0.25134,0 -0.45698,-0.20564 -0.45698,-0.45698 z m -10.05352,7.311654 c 0,-0.25134 0.20564,-0.45698 0.45698,-0.45698 0.25134,0 0.45698,0.20564 0.45698,0.45698 0,0.25134 -0.20564,0.45698 -0.45698,0.45698 -0.25134,0 -0.45698,-0.20564 -0.45698,-0.45698 z m 79.51419,0 c 0,-0.25134 0.20564,-0.45698 0.45698,-0.45698 0.25134,0 0.45698,0.20564 0.45698,0.45698 0,0.25134 -0.20564,0.45698 -0.45698,0.45698 -0.25134,0 -0.45698,-0.20564 -0.45698,-0.45698 z m 158.77097,-0.72348 c -0.26808,-0.69861 -0.1557,-1.80693 0.24974,-2.46294 1.02523,-1.658874 3.8679,-0.3778 3.49206,1.57374 -0.37997,1.97302 -3.07971,2.61459 -3.7418,0.8892 z m -11.51264,-5.471444 c -1.64808,-1.64809 -1.18342,-4.14223 0.89458,-4.80176 2.4416,-0.77493 3.64934,0.41875 2.98685,2.9521 -0.6218,2.37779 -2.47173,3.25935 -3.88143,1.84966 z M 265.9917,96.183356 c -7.94654,-3.37081 -20.76613,-35.194851 -15.50179,-38.48248 1.02485,-0.640034 1.62041,-1.556814 1.32347,-2.03729 -0.29695,-0.480476 0.0406,-0.650829 0.75016,-0.378552 1.44391,0.554086 7.9602,-6.265819 12.41957,-12.998249 C 275.53552,26.355559 274.36194,4.1339654 263.11943,6.9980664 251.0581,10.070778 244.72565,21.422709 242.1875,44.521956 c -4.54228,41.33841 -7.91528,52.61132 -14.9359,49.91727 -1.83347,-0.70358 -1.862,-2.69627 -0.10974,-7.66272 2.82063,-7.99449 7.6163,-50.010172 7.87826,-69.022683 0.19547,-14.1865016 2.02137,-17.03236857 7.60678,-11.8559946 2.46596,2.285384 2.55975,2.674172 2.12175,8.7956576 -0.45824,6.404595 -0.45824,6.404595 1.20081,3.875522 0.91247,-1.390986 1.41088,-2.966007 1.10757,-3.500041 -0.30331,-0.534034 -0.23415,-0.685312 0.15368,-0.33618 0.38784,0.349131 1.78236,-0.645381 3.09893,-2.210038 8.23314,-9.7845226 20.4053,-10.8885726 26.29807,-2.385307 7.46897,10.777747 1.58081,32.462017 -12.73168,46.886805 -7.10846,7.16422 -7.11551,7.877946 -0.22643,22.897009 7.88025,17.17994 13.76158,16.75683 21.13097,-1.52021 3.18322,-7.894793 5.75863,-10.875506 4.66287,-5.396667 -3.04704,15.235207 -14.7982,26.849697 -23.45174,23.178977 z m -180.616031,-2.5274 c -0.636677,-1.65916 0.28809,-3.24261 1.893741,-3.24261 1.398032,0 2.246079,1.74991 1.660961,3.42733 -0.546107,1.56558 -2.930596,1.44168 -3.554702,-0.18472 z m 339.339771,-1.11005 c -1.06006,-1.06005 -0.66059,-2.83127 0.76163,-3.37703 0.99044,-0.38007 1.37093,0.1001 1.37093,1.73013 0,2.19387 -0.89468,2.88479 -2.13256,1.6469 z m -253.77519,-2.58954 c 0,-0.25134 0.20564,-0.45698 0.45698,-0.45698 0.25134,0 0.45698,0.20564 0.45698,0.45698 0,0.25134 -0.20564,0.45698 -0.45698,0.45698 -0.25134,0 -0.45698,-0.20564 -0.45698,-0.45698 z m 226.99166,-6.39769 c -0.87496,-2.28012 0.3904,-4.11281 2.83966,-4.11281 2.50025,0 2.84899,0.94764 1.36746,3.71591 -1.12531,2.10265 -3.46776,2.32364 -4.20712,0.3969 z M 76.802757,76.170863 c 0,-0.79591 0.488396,-1.284301 1.085323,-1.085323 1.694679,0.564889 1.975754,2.532416 0.361774,2.532416 -0.795903,0 -1.447097,-0.65119 -1.447097,-1.447093 z m 13.709344,-0.837797 c 0,-0.251338 0.20564,-0.456978 0.456978,-0.456978 0.251338,0 0.456978,0.20564 0.456978,0.456978 0,0.251338 -0.20564,0.456978 -0.456978,0.456978 -0.251338,0 -0.456978,-0.20564 -0.456978,-0.456978 z M 201.10081,72.591198 c 0,-0.251338 0.20564,-0.456978 0.45698,-0.456978 0.25134,0 0.45698,0.20564 0.45698,0.456978 0,0.251338 -0.20564,0.456978 -0.45698,0.456978 -0.25134,0 -0.45698,-0.20564 -0.45698,-0.456978 z m -32.90243,-0.913957 c 0,-0.251338 0.20564,-0.456978 0.45698,-0.456978 0.25134,0 0.45698,0.20564 0.45698,0.456978 0,0.251338 -0.20564,0.456979 -0.45698,0.456979 -0.25134,0 -0.45698,-0.205641 -0.45698,-0.456979 z m 244.04031,-0.685467 c 0.035,-2.860409 1.68745,-3.947258 3.1197,-2.05195 1.9372,2.56351 1.76957,3.194396 -0.8488,3.194396 -1.25669,0 -2.27859,-0.514101 -2.2709,-1.142446 z m -7.32564,-1.088503 c 0,-0.724347 0.36468,-1.542384 0.8104,-1.81785 1.0064,-0.621993 3.05471,1.70695 2.22819,2.533468 -1.08739,1.087398 -3.03859,0.62787 -3.03859,-0.715618 z m -94.13749,-7.365592 c 0,-0.251338 0.20564,-0.456978 0.45698,-0.456978 0.25133,0 0.45697,0.20564 0.45697,0.456978 0,0.251338 -0.20564,0.456978 -0.45697,0.456978 -0.25134,0 -0.45698,-0.20564 -0.45698,-0.456978 z m 80.42815,-5.429796 c 0,-0.783681 0.41128,-1.424876 0.91395,-1.424876 0.50268,0 0.91396,0.387006 0.91396,0.860015 0,0.473009 -0.41128,1.114204 -0.91396,1.424876 -0.50267,0.310672 -0.91395,-0.07632 -0.91395,-0.860015 z m -144.40509,-0.05394 c 0,-0.251338 0.20564,-0.456979 0.45698,-0.456979 0.25134,0 0.45698,0.205641 0.45698,0.456979 0,0.251338 -0.20564,0.456978 -0.45698,0.456978 -0.25134,0 -0.45698,-0.20564 -0.45698,-0.456978 z m -138.00739,-5.53768 c 0,-0.78368 0.41799,-1.166537 0.92886,-0.850801 0.51088,0.315735 0.69225,0.95693 0.40304,1.424876 -0.78347,1.267693 -1.3319,1.031317 -1.3319,-0.574075 z m 282.76993,-1.478031 c -0.31007,-0.501707 -0.13371,-1.342246 0.39191,-1.867862 1.19239,-1.192393 4.09876,-0.177061 3.61839,1.264056 -0.45585,1.367535 -3.27588,1.792132 -4.0103,0.603806 z M 259.59401,45.17251 c 0,-0.251338 0.20564,-0.456978 0.45698,-0.456978 0.25133,0 0.45697,0.20564 0.45697,0.456978 0,0.251338 -0.20564,0.456979 -0.45697,0.456979 -0.25134,0 -0.45698,-0.205641 -0.45698,-0.456979 z M 109.48063,39.917262 c -0.67843,-1.844821 0.25168,-3.427336 2.01438,-3.427336 1.13738,0 1.63751,0.69787 1.63751,2.284891 0,2.433299 -2.84939,3.324689 -3.65189,1.142445 z m 344.78606,0.685467 c 0,-0.251338 0.20564,-0.456978 0.45698,-0.456978 0.25133,0 0.45697,0.20564 0.45697,0.456978 0,0.251338 -0.20564,0.456978 -0.45697,0.456978 -0.25134,0 -0.45698,-0.20564 -0.45698,-0.456978 z M 114.27497,38.774817 c 0,-0.251338 0.20564,-0.456978 0.45697,-0.456978 0.25134,0 0.45698,0.20564 0.45698,0.456978 0,0.251338 -0.20564,0.456978 -0.45698,0.456978 -0.25133,0 -0.45697,-0.20564 -0.45697,-0.456978 z m 328.11029,-2.741869 c 0,-0.251338 0.20564,-0.456978 0.45697,-0.456978 0.25134,0 0.45698,0.20564 0.45698,0.456978 0,0.251338 -0.20564,0.456978 -0.45698,0.456978 -0.25133,0 -0.45697,-0.20564 -0.45697,-0.456978 z M 90.557957,32.919785 c -1.329665,-2.484499 -1.224344,-2.827553 0.8681,-2.827553 1.200082,0 1.827913,0.609308 1.827913,1.773971 0,2.543806 -1.57009,3.15739 -2.696013,1.053582 z m 308.871353,0.371294 c 0,-0.754014 0.41128,-1.370934 0.91396,-1.370934 0.50268,0 0.91396,0.61692 0.91396,1.370934 0,0.754014 -0.41128,1.370935 -0.91396,1.370935 -0.50268,0 -0.91396,-0.616921 -0.91396,-1.370935 z M 112.96804,24.712055 c -0.622,-1.006402 1.70695,-3.054716 2.53346,-2.228197 0.33076,0.33076 0.60138,1.149747 0.60138,1.819988 0,1.361521 -2.35605,1.668317 -3.13484,0.408209 z M 390.71753,23.60254 c -0.33515,-1.055958 -0.15429,-2.374988 0.40192,-2.931195 1.40668,-1.406679 4.0044,1.270929 3.21891,3.317908 -0.81987,2.13651 -2.89017,1.915397 -3.62083,-0.386713 z m 23.33508,0.548977 c 0,-0.754014 0.41128,-1.370934 0.91396,-1.370934 0.50268,0 0.91396,0.61692 0.91396,1.370934 0,0.754014 -0.41128,1.370934 -0.91396,1.370934 -0.50268,0 -0.91396,-0.61692 -0.91396,-1.370934 z M 196.53103,23.237561 c 0,-0.251338 0.20564,-0.456978 0.45698,-0.456978 0.25133,0 0.45697,0.20564 0.45697,0.456978 0,0.251338 -0.20564,0.456978 -0.45697,0.456978 -0.25134,0 -0.45698,-0.20564 -0.45698,-0.456978 z m 10.96747,-6.397694 c 0,-0.251338 0.20564,-0.456978 0.45698,-0.456978 0.25134,0 0.45698,0.20564 0.45698,0.456978 0,0.251338 -0.20564,0.456978 -0.45698,0.456978 -0.25134,0 -0.45698,-0.20564 -0.45698,-0.456978 z m 178.67339,-4.120983 c -0.96166,-1.556001 0.51804,-4.6848566 2.07382,-4.3850886 2.62321,0.505436 3.2095,5.3072246 0.648,5.3072246 -1.18355,0 -2.40837,-0.414963 -2.72182,-0.922136 z m 13.89833,-0.569532 c -1.43922,-1.439216 -0.58498,-3.1973016 1.41549,-2.9131896 1.13103,0.160628 2.05641,0.9033456 2.05641,1.6504676 0,1.452057 -2.40712,2.327509 -3.4719,1.262722 z M 86.170809,11.207813 c -0.628345,-0.253541 -1.142446,-1.4891906 -1.142446,-2.7458806 0,-3.11809 2.257429,-2.25101 2.377122,0.91306 0.05072,1.3409656 0.05072,2.4056426 0,2.3659586 -0.05072,-0.03967 -0.606331,-0.279598 -1.234676,-0.533138 z M 266.36141,10.757936 c -0.40405,-0.653753 -0.25072,-0.8070776 0.40303,-0.403036 0.58035,0.358673 1.05517,0.8335 1.05517,1.055171 0,0.762368 -0.80706,0.401428 -1.4582,-0.652135 z M 124.64832,10.199692 c -1.04561,-0.6679736 -1.54871,-2.3757836 -1.34208,-4.5557886 0.18983,-2.002743 5.39451,-1.376656 6.06292,0.729328 0.98741,3.111025 -2.02218,5.5504376 -4.72084,3.8264606 z M 375.68223,5.8914124 c -0.92244,-1.111481 -0.96121,-1.72406 -0.15984,-2.525435 1.5451,-1.545098 3.35221,0.464582 2.22652,2.476081 -0.77791,1.390054 -0.95057,1.394176 -2.06668,0.04935 z M 101.10485,2.8066264 c -0.90753,-1.468416 0.50514,-3.897822 2.08915,-3.59277097 1.94732,0.375024 1.92289,3.80719497 -0.0298,4.18324197 -0.83281,0.16039 -1.75953,-0.105324 -2.05937,-0.590471 z m 263.59413,-0.386375 c 0,-0.64199 -1.23384,-2.51813197 -2.74187,-4.169212 -4.0593,-4.444359 -3.32754,-5.659921 0.91395,-1.518209 3.41608,3.33570203 4.82366,6.854672 2.74187,6.854672 -0.50267,0 -0.91395,-0.52526 -0.91395,-1.167251 z m 13.79036,-1.02002 c -0.85163,-1.02615397 -0.87157,-1.81931297 -0.0828,-3.293186 1.51748,-2.835458 4.11456,-1.972208 4.11456,1.36765303 0,3.06484297 -2.21021,4.12040797 -4.03179,1.92553297 z m 27.94697,-6.647643 c -0.33512,-0.335111 -0.6093,-1.157672 -0.6093,-1.827912 0,-1.617831 2.41229,-1.567828 3.03809,0.06297 0.73845,1.924381 -1.00351,3.190219 -2.42879,1.764941 z m -272.96826,-1.563678 c 0,-2.175719 2.72712,-3.8936554 3.71148,-2.338028 1.44876,2.289533 0.93019,3.597057 -1.42659,3.597057 -1.33144,0 -2.28489,-0.525369 -2.28489,-1.259029 z m 217.52158,-1.939818 c 0,-0.251338 0.20564,-0.456978 0.45698,-0.456978 0.25134,0 0.45698,0.20564 0.45698,0.456978 0,0.251338 -0.20564,0.456978 -0.45698,0.456978 -0.25134,0 -0.45698,-0.20564 -0.45698,-0.456978 z m 2.74187,-1.046681 c -1.54175,-0.4247244 -3.9479,-4.9332334 -3.06414,-5.7414084 0.31489,-0.287961 0.75613,-0.0094 0.98054,0.618885 0.2244,0.628345 1.37767,1.142445 2.56281,1.142445 2.50929,0 3.41022,1.069649 2.62482,3.116371 -0.56892,1.4825564 -0.71253,1.5225144 -3.10403,0.8637074 z m 24.36424,-2.7693974 c -0.33075,-0.330761 -0.60138,-1.149747 -0.60138,-1.819988 0,-1.36152 2.35605,-1.668317 3.13485,-0.408209 0.62199,1.006403 -1.70695,3.054715 -2.53347,2.228197 z m -40.75423,-4.013126 c -1.64263,-2.044018 -2.69858,-3.997599 -2.34656,-4.341292 0.66198,-0.646332 6.85512,5.94512 6.85512,7.296012 0,1.6721 -1.66972,0.577839 -4.50856,-2.95472 z m -199.98915,1.218303 c -1.28461,-0.445389 -1.58612,-3.899595 -0.34039,-3.899595 1.33752,0 2.79124,2.2815 2.11603,3.320942 -0.34826,0.536118 -1.14729,0.796513 -1.77564,0.578653 z m 11.08629,-0.656979 c -0.63667,-1.659159 0.28809,-3.242616 1.89375,-3.242616 1.38552,0 2.59564,2.484544 1.82078,3.7383 -0.79886,1.292581 -3.14864,0.979012 -3.71453,-0.495684 z m -44.95599,-1.48325 c 0.18013,-0.540377 0.71822,-0.982503 1.19576,-0.982503 0.47755,0 1.01564,0.442126 1.19576,0.982503 0.18013,0.540376 -0.35796,0.982503 -1.19576,0.982503 -0.83779,0 -1.37588,-0.442127 -1.19576,-0.982503 z m 280.86638,0.06855 c -0.31068,-0.502675 -0.30999,-1.326351 0.002,-1.83038 0.6684,-1.081484 4.11128,0.478255 4.11128,1.862533 0,1.165066 -3.38926,1.138571 -4.1128,-0.03217 z m -40.44257,-1.519251 c -0.62834,-0.25354 -1.14244,-0.866595 -1.14244,-1.362343 0,-1.286046 3.89408,-0.546637 4.34587,0.825193 0.37836,1.148898 -1.08094,1.393591 -3.20343,0.53715 z M 166.82745,-20.17536 c -0.31067,-0.502676 0.10061,-0.913957 0.91396,-0.913957 0.81334,0 1.22462,0.411281 0.91395,0.913957 -0.31067,0.502676 -0.72195,0.913956 -0.91395,0.913956 -0.19201,0 -0.60329,-0.41128 -0.91396,-0.913956 z m -24.21984,-0.913957 c 0,-0.502675 0.61692,-0.913956 1.37093,-0.913956 0.75402,0 1.37094,0.411281 1.37094,0.913956 0,0.502676 -0.61692,0.913957 -1.37094,0.913957 -0.75401,0 -1.37093,-0.411281 -1.37093,-0.913957 z m -4.56978,-1.370934 c 0,-0.251338 0.20564,-0.456978 0.45698,-0.456978 0.25133,0 0.45697,0.20564 0.45697,0.456978 0,0.251338 -0.20564,0.456978 -0.45697,0.456978 -0.25134,0 -0.45698,-0.20564 -0.45698,-0.456978 z m 218.43554,-2.28489 c 0,-1.005352 0.36728,-1.827913 0.81617,-1.827913 1.02733,0 1.98561,2.37731 1.25342,3.109489 -1.10018,1.100193 -2.06959,0.499898 -2.06959,-1.281576 z m -30.07429,-4.036177 c -2.49949,-2.2199 -5.28936,-4.458663 -6.19971,-4.975021 -3.12879,-1.774675 0.66124,-4.371462 4.22545,-2.895121 1.54107,0.638334 2.80195,1.459524 2.80195,1.824878 0,0.365345 1.5423,1.371766 3.42734,2.236497 5.99473,2.749985 10.35821,6.930987 7.23348,6.930987 -1.51667,0 -3.36686,-0.911077 -4.64006,-2.28489 -2.52903,-2.728863 -6.32821,-3.377233 -4.01654,-0.685467 4.31411,5.023478 2.91051,4.948204 -2.83191,-0.151863 z m -174.65191,2.665242 c 0,-0.251338 0.20564,-0.456978 0.45698,-0.456978 0.25134,0 0.45698,0.20564 0.45698,0.456978 0,0.251338 -0.20564,0.456978 -0.45698,0.456978 -0.25134,0 -0.45698,-0.20564 -0.45698,-0.456978 z m 194.01632,-2.005266 c 0.67862,-3.549934 -7.26318,-10.893435 -9.54636,-8.827181 -2.28219,2.065349 -4.82629,1.207464 -5.16675,-1.742266 -0.15906,-1.378063 0.1494,-2.505565 0.68547,-2.505565 0.53606,0 0.97466,-0.616921 0.97466,-1.370935 0,-2.444595 1.79277,-1.476085 8.03597,4.341293 11.78137,10.977812 12.69786,12.342769 8.32798,12.403072 -3.55563,0.04908 -3.73581,-0.07604 -3.31097,-2.298418 z m -195.84423,1.09131 c 0,-0.251338 0.20564,-0.456978 0.45698,-0.456978 0.25134,0 0.45698,0.20564 0.45698,0.456978 0,0.251338 -0.20564,0.456978 -0.45698,0.456978 -0.25134,0 -0.45698,-0.20564 -0.45698,-0.456978 z m 0.91396,-3.655825 c 0,-1.606351 0.49759,-2.284891 1.67558,-2.284891 2.37564,0 2.97137,0.88992 1.91593,2.862036 -1.34151,2.506635 -3.59151,2.145055 -3.59151,-0.577145 z m 18.27912,-4.112804 c 0,-0.502675 0.61692,-0.913956 1.37093,-0.913956 0.75402,0 1.37094,0.411281 1.37094,0.913956 0,0.502676 -0.61692,0.913957 -1.37094,0.913957 -0.75401,0 -1.37093,-0.411281 -1.37093,-0.913957 z m -16.45121,-0.456978 c 0,-0.251338 0.20564,-0.456978 0.45698,-0.456978 0.25133,0 0.45697,0.20564 0.45697,0.456978 0,0.251338 -0.20564,0.456978 -0.45697,0.456978 -0.25134,0 -0.45698,-0.20564 -0.45698,-0.456978 z m -10.05352,-5.483737 c 0,-0.761627 0.81241,-1.370934 1.82791,-1.370934 1.01551,0 1.82791,0.609307 1.82791,1.370934 0,0.761627 -0.8124,1.370934 -1.82791,1.370934 -1.0155,0 -1.82791,-0.609307 -1.82791,-1.370934 z m 19.20206,0.01079 c -0.91657,-1.104398 -0.84015,-1.470885 0.4065,-1.949268 1.80073,-0.691006 3.72075,0.878723 2.83258,2.315801 -0.84339,1.364637 -1.90174,1.244872 -3.23908,-0.366533 z m 191.18305,-0.53631 c 0.18013,-0.540377 0.71822,-0.982503 1.19576,-0.982503 0.47754,0 1.01563,0.442126 1.19576,0.982503 0.18013,0.540377 -0.35796,0.982503 -1.19576,0.982503 -0.8378,0 -1.37589,-0.442126 -1.19576,-0.982503 z m -215.32865,-4.36659 c -0.26491,-0.428618 0.0944,-1.559639 0.79848,-2.51338 1.50946,-2.044712 3.85102,-0.555027 2.92417,1.860321 -0.58779,1.531754 -2.92608,1.941956 -3.72265,0.653059 z m 41.85278,-1.452195 c -0.88715,-2.311907 0.0644,-4.614519 2.02321,-4.895762 2.44823,-0.351516 4.34137,1.944068 3.58043,4.341539 -0.6971,2.196365 -4.81712,2.603853 -5.60364,0.554223 z m 146.84905,-0.2836 c -1.19775,-0.969872 -1.79797,-1.99811 -1.33381,-2.284973 1.16702,-0.721258 4.29328,1.703139 3.86253,2.995373 -0.23012,0.690366 -1.10099,0.445718 -2.52872,-0.7104 z m 5.88763,-5.710499 c -1.12888,-1.247404 -1.38867,-2.175755 -0.77937,-2.785063 0.6093,-0.609298 1.4784,-0.290254 2.60728,0.95715 1.12888,1.247404 1.38868,2.175755 0.77937,2.785062 -0.6093,0.609299 -1.4784,0.290255 -2.60728,-0.957149 z m -135.56145,-1.118491 c -1.94916,-1.949158 -1.27951,-4.365247 1.20988,-4.365247 1.62592,0 2.28489,0.494908 2.28489,1.716008 0,2.431343 -2.1118,4.03221 -3.49477,2.649239 z m 16.85917,-1.204009 c -0.77159,-2.010741 0.062,-3.161238 2.29037,-3.161238 1.38074,0 1.76493,0.508891 1.54548,2.047061 -0.34977,2.451642 -3.02448,3.228551 -3.83585,1.114177 z m 104.78077,-1.388592 c -1.66282,-0.642045 -1.89726,-1.174562 -1.26779,-2.879602 0.88074,-2.385645 3.76485,-3.397706 3.76485,-1.321115 0,0.748987 0.5141,1.552391 1.14244,1.78535 0.8678,0.321731 0.81287,0.75766 -0.22849,1.813316 -0.9717,0.985044 -1.96503,1.160368 -3.41101,0.602051 z m 42.3024,0.133328 c -0.29428,-0.476144 -0.14547,-1.106481 0.33067,-1.400748 0.47614,-0.294276 1.10648,-0.145474 1.40075,0.330669 0.29427,0.476144 0.14547,1.106482 -0.33067,1.400748 -0.47615,0.294276 -1.10648,0.145474 -1.40075,-0.330669 z m -18.71305,-3.191005 c -1.28856,-1.552611 -0.60322,-3.28475 1.29963,-3.28475 1.97893,0 2.63609,1.86841 1.17208,3.332422 -1.16283,1.162826 -1.47204,1.156867 -2.47171,-0.04771 z m -101.06346,-0.542886 c -0.31068,-0.502676 0.0763,-0.913957 0.86001,-0.913957 0.78368,0 1.42488,0.411281 1.42488,0.913957 0,0.502676 -0.38701,0.913956 -0.86002,0.913956 -0.47301,0 -1.1142,-0.41128 -1.42487,-0.913956 z m 50.72457,-1.827913 c 0,-0.502676 0.387,-0.913956 0.86001,-0.913956 0.47301,0 1.11421,0.41128 1.42488,0.913956 0.31067,0.502676 -0.0763,0.913956 -0.86002,0.913956 -0.78368,0 -1.42487,-0.41128 -1.42487,-0.913956 z m -106.93288,-2.28489 c 0,-0.251338 0.20564,-0.456978 0.45697,-0.456978 0.25134,0 0.45698,0.20564 0.45698,0.456978 0,0.251338 -0.20564,0.456978 -0.45698,0.456978 -0.25133,0 -0.45697,-0.20564 -0.45697,-0.456978 z m -20.8613,-1.98218 c 0.38743,-2.011791 3.95311,-2.284835 3.95311,-0.302711 0,0.754014 -0.96197,1.50715 -2.13771,1.673646 -1.65775,0.23474 -2.06535,-0.07303 -1.8154,-1.370935 z m -17.84686,-1.912215 c -0.23643,-0.382546 0.15212,-1.491467 0.86344,-2.464255 1.50622,-2.059874 3.73461,-0.68873 2.80745,1.727432 -0.56964,1.48443 -2.91757,1.955711 -3.67089,0.736823 z m 41.45003,-0.218408 c 0,-0.502676 0.41128,-0.913957 0.91395,-0.913957 0.50268,0 0.91396,0.411281 0.91396,0.913957 0,0.502675 -0.41128,0.913956 -0.91396,0.913956 -0.50267,0 -0.91395,-0.411281 -0.91395,-0.913956 z m 122.04297,0.04826 c -0.80359,-1.300239 0.22116,-2.790125 1.91905,-2.790125 0.80076,0 1.25948,0.642109 1.0885,1.523684 -0.356,1.835653 -2.18084,2.604062 -3.00755,1.266432 z m 3.60807,-7.388924 c -0.35495,-0.574312 -0.21529,-1.474258 0.31032,-1.999874 1.22827,-1.228266 4.09191,-0.156917 3.5922,1.343918 -0.50871,1.527842 -3.095,1.962557 -3.90252,0.655956 z m 23.81208,-1.74828 c -0.32788,-0.530506 -0.36459,-1.339211 -0.0816,-1.797112 0.77862,-1.259825 3.70614,-0.543247 3.70614,0.907156 0,1.547027 -2.79441,2.233143 -3.62455,0.889956 z M 222.1218,-79.582512 c 0,-1.015506 0.60931,-1.827913 1.37094,-1.827913 0.76162,0 1.37093,0.812407 1.37093,1.827913 0,1.015506 -0.60931,1.827912 -1.37093,1.827912 -0.76163,0 -1.37094,-0.812406 -1.37094,-1.827912 z m 52.6283,1.036618 c -0.39371,-0.637028 -0.46901,-1.405052 -0.16734,-1.706731 0.81797,-0.817954 1.7098,0.38505 1.26802,1.710423 -0.30958,0.928735 -0.52486,0.928013 -1.10068,-0.0037 z m -99.24007,-2.864531 c 0,-0.502676 0.61692,-0.913956 1.37094,-0.913956 0.75401,0 1.37093,0.41128 1.37093,0.913956 0,0.502676 -0.61692,0.913956 -1.37093,0.913956 -0.75402,0 -1.37094,-0.41128 -1.37094,-0.913956 z m 45.86979,-6.158709 c 0.45881,-2.382443 3.48385,-2.648143 3.48385,-0.305999 0,1.307961 -0.58697,1.894927 -1.89492,1.894927 -1.30797,0 -1.80015,-0.49218 -1.58893,-1.588928 z m 32.14935,-1.603805 c -0.31656,-0.824954 -0.17845,-1.897034 0.30691,-2.3824 1.27901,-1.279012 4.0697,0.06208 3.7359,1.795324 -0.38743,2.011711 -3.33204,2.439314 -4.04281,0.587076 z m -1.24681,-6.403808 c 0,-0.251337 0.20564,-0.456978 0.45698,-0.456978 0.25133,0 0.45697,0.205641 0.45697,0.456978 0,0.251338 -0.20564,0.456979 -0.45697,0.456979 -0.25134,0 -0.45698,-0.205641 -0.45698,-0.456979 z m 19.73831,-0.314189 c -0.31628,-0.511742 -0.12969,-1.205682 0.41462,-1.542089 1.40519,-0.868458 2.31183,0.321118 1.13878,1.494168 -0.65639,0.656385 -1.1676,0.672156 -1.5534,0.04792 z m -31.86795,-5.265434 c -0.99546,-0.99545 0.20748,-2.189 2.20622,-2.189 1.07368,0 1.6905,0.47945 1.46975,1.14244 -0.43456,1.30513 -2.75638,1.96616 -3.67597,1.04656 z"
       id="path3762" /></g></svg>
